<svg id="Layer_1" data-name="Layer 1" xmlns="http://www.w3.org/2000/svg" viewBox="0 0 176.32 148.26"><title>mist</title><path d="M1018.93,943.61h0c0-.25,0-0.5,0-0.75a36.25,36.25,0,1,0-72.51,0s0,0,0,.07a29.59,29.59,0,0,0,1.39,59.16h71.12A29.24,29.24,0,1,0,1018.93,943.61Z" transform="translate(-893.76 -906.61)" fill="#d1d3d4"/><path d="M1027.71,1020h-89.3a3.77,3.77,0,0,1,0-7.53h89.3A3.77,3.77,0,0,1,1027.71,1020Z" transform="translate(-893.76 -906.61)" fill="#d1d3d4"/><path d="M1066.31,1020h-19a3.77,3.77,0,0,1,0-7.53h19A3.77,3.77,0,1,1,1066.31,1020Z" transform="translate(-893.76 -906.61)" fill="#d1d3d4"/><path d="M1062.58,1054.87H922.85a3.77,3.77,0,0,1,0-7.53h139.73A3.77,3.77,0,0,1,1062.58,1054.87Z" transform="translate(-893.76 -906.61)" fill="#d1d3d4"/><path d="M1002.36,1037.45H897.52a3.77,3.77,0,0,1,0-7.53h104.84A3.77,3.77,0,1,1,1002.36,1037.45Z" transform="translate(-893.76 -906.61)" fill="#d1d3d4"/><path d="M1054.47,1037.45h-30.68a3.77,3.77,0,1,1,0-7.53h30.68A3.77,3.77,0,1,1,1054.47,1037.45Z" transform="translate(-893.76 -906.61)" fill="#d1d3d4"/></svg>