<svg id="Layer_1" data-name="Layer 1" xmlns="http://www.w3.org/2000/svg" viewBox="0 0 159.57 133.68"><title>moon-clouds</title><path d="M1054.36,455.84a29.89,29.89,0,1,1,7.61-58.76,43,43,0,1,0,16.23,46.84A29.81,29.81,0,0,1,1054.36,455.84Z" transform="translate(-918.63 -388.99)" fill="#faaf40"/><path d="M1019.36,464.2h0c0-.25,0-0.5,0-0.75a36.25,36.25,0,1,0-72.51,0s0,0,0,.07a29.59,29.59,0,0,0,1.39,59.16h71.12A29.24,29.24,0,1,0,1019.36,464.2Z" transform="translate(-918.63 -388.99)" fill="#bcbec0"/></svg>