<svg id="Layer_1" data-name="Layer 1" xmlns="http://www.w3.org/2000/svg" viewBox="0 0 129.97 129.8"><title>rain</title><path d="M227.5,703h0c0-.25,0-0.5,0-0.75a36.25,36.25,0,1,0-72.51,0s0,0,0,.07a29.59,29.59,0,0,0,1.39,59.16H227.5A29.24,29.24,0,1,0,227.5,703Z" transform="translate(-126.77 -666.03)" fill="#939598"/><path d="M171.31,747.82l-11.45,24.33A18.73,18.73,0,0,0,160,789a12.7,12.7,0,0,0,22.52,0,18.73,18.73,0,0,0,.19-16.85Z" transform="translate(-126.77 -666.03)" fill="#42bfec"/><path d="M209,731.11l-11.45,24.33a18.73,18.73,0,0,0,.19,16.85,12.7,12.7,0,0,0,22.52,0,18.73,18.73,0,0,0,.19-16.85Z" transform="translate(-126.77 -666.03)" fill="#42bfec"/></svg>