<svg id="Layer_1" data-name="Layer 1" xmlns="http://www.w3.org/2000/svg" viewBox="0 0 129.97 128.29"><title>rain-shower</title><path d="M1019.64,208.61h0c0-.25,0-0.5,0-0.75a36.25,36.25,0,1,0-72.51,0s0,0,0,.07a29.59,29.59,0,0,0,1.39,59.16h71.12A29.24,29.24,0,1,0,1019.64,208.61Z" transform="translate(-918.91 -171.6)" fill="#939598"/><path d="M932.39,299.9a3.77,3.77,0,0,1-3.19-5.76l29.27-46.83a3.77,3.77,0,0,1,6.39,4l-29.27,46.83A3.76,3.76,0,0,1,932.39,299.9Z" transform="translate(-918.91 -171.6)" fill="#42bfec"/><path d="M993.06,299.9a3.77,3.77,0,0,1-3.19-5.76l20.74-33.19a3.77,3.77,0,0,1,6.39,4l-20.74,33.19A3.76,3.76,0,0,1,993.06,299.9Z" transform="translate(-918.91 -171.6)" fill="#42bfec"/><path d="M961.65,299.9a3.77,3.77,0,0,1-3.2-5.75l41-66.38a3.77,3.77,0,0,1,6.41,4l-41,66.38A3.77,3.77,0,0,1,961.65,299.9Z" transform="translate(-918.91 -171.6)" fill="#42bfec"/></svg>