<svg id="Layer_1" data-name="Layer 1" xmlns="http://www.w3.org/2000/svg" viewBox="0 0 129.97 133.57"><title>snow</title><path d="M229.16,438.71h0c0-.25,0-0.5,0-0.75a36.25,36.25,0,1,0-72.51,0s0,0,0,.07A29.59,29.59,0,0,0,158,497.18h71.12A29.24,29.24,0,1,0,229.16,438.71Z" transform="translate(-128.43 -401.7)" fill="#42bfec"/><polygon points="42.89 100.53 48.69 110.81 60.26 113.15 52.28 121.84 53.62 133.57 42.89 128.66 32.16 133.57 33.5 121.84 25.52 113.15 37.09 110.81 42.89 100.53" fill="#ade0f3"/><polygon points="83.04 63.52 90.65 77.01 105.83 80.08 95.36 91.48 97.12 106.86 83.04 100.43 68.96 106.86 70.73 91.48 60.26 80.08 75.43 77.01 83.04 63.52" fill="#ade0f3"/></svg>