<svg id="Layer_1" data-name="Layer 1" xmlns="http://www.w3.org/2000/svg" viewBox="0 0 174.78 132.01"><title>sun-clouds</title><circle cx="62.33" cy="61.91" r="29.89" fill="#faaf40"/><path d="M675.38,158.69a3.77,3.77,0,0,1-3.77-3.77V138.53a3.77,3.77,0,1,1,7.53,0v16.39A3.77,3.77,0,0,1,675.38,158.69Z" transform="translate(-613.05 -134.76)" fill="#faaf40"/><path d="M633.21,200.86H616.82a3.77,3.77,0,1,1,0-7.53h16.39A3.77,3.77,0,1,1,633.21,200.86Z" transform="translate(-613.05 -134.76)" fill="#faaf40"/><path d="M645.56,171a3.76,3.76,0,0,1-2.66-1.1l-11.59-11.59a3.77,3.77,0,0,1,5.33-5.33l11.59,11.59A3.77,3.77,0,0,1,645.56,171Z" transform="translate(-613.05 -134.76)" fill="#faaf40"/><path d="M634,242.27a3.77,3.77,0,0,1-2.66-6.43l11.59-11.59a3.77,3.77,0,0,1,5.33,5.33l-11.59,11.59A3.75,3.75,0,0,1,634,242.27Z" transform="translate(-613.05 -134.76)" fill="#faaf40"/><path d="M705.2,171a3.77,3.77,0,0,1-2.66-6.43L714.12,153a3.77,3.77,0,0,1,5.33,5.33l-11.59,11.59A3.75,3.75,0,0,1,705.2,171Z" transform="translate(-613.05 -134.76)" fill="#faaf40"/><path d="M758.59,208.3h0c0-.25,0-0.5,0-0.75a36.25,36.25,0,1,0-72.51,0s0,0,0,.07a29.59,29.59,0,0,0,1.39,59.16h71.12A29.24,29.24,0,1,0,758.59,208.3Z" transform="translate(-613.05 -134.76)" fill="#d1d3d4"/></svg>