<svg id="Layer_1" data-name="Layer 1" xmlns="http://www.w3.org/2000/svg" viewBox="0 0 124.66 124.66"><title>sun</title><circle cx="62.33" cy="61.91" r="29.89" fill="#faaf40"/><path d="M191.75,154a3.77,3.77,0,0,1-3.77-3.77V133.8a3.77,3.77,0,1,1,7.53,0v16.39A3.77,3.77,0,0,1,191.75,154Z" transform="translate(-129.42 -130.03)" fill="#faaf40"/><path d="M191.75,254.69a3.77,3.77,0,0,1-3.77-3.77V234.53a3.77,3.77,0,1,1,7.53,0v16.39A3.77,3.77,0,0,1,191.75,254.69Z" transform="translate(-129.42 -130.03)" fill="#faaf40"/><path d="M250.32,196.13H233.93a3.77,3.77,0,0,1,0-7.53h16.39A3.77,3.77,0,0,1,250.32,196.13Z" transform="translate(-129.42 -130.03)" fill="#faaf40"/><path d="M133.19,196.13h16.39a3.77,3.77,0,0,0,0-7.53H133.19A3.77,3.77,0,0,0,133.19,196.13Z" transform="translate(-129.42 -130.03)" fill="#faaf40"/><path d="M161.93,166.31a3.75,3.75,0,0,1-2.66-1.1l-11.59-11.59a3.77,3.77,0,1,1,5.33-5.33l11.59,11.59A3.77,3.77,0,0,1,161.93,166.31Z" transform="translate(-129.42 -130.03)" fill="#faaf40"/><path d="M233.16,237.54a3.75,3.75,0,0,1-2.66-1.1l-11.59-11.59a3.77,3.77,0,0,1,5.33-5.33l11.59,11.59A3.77,3.77,0,0,1,233.16,237.54Z" transform="translate(-129.42 -130.03)" fill="#faaf40"/><path d="M150.34,237.54a3.77,3.77,0,0,1-2.66-6.43l11.59-11.59a3.77,3.77,0,1,1,5.33,5.33L153,236.44A3.75,3.75,0,0,1,150.34,237.54Z" transform="translate(-129.42 -130.03)" fill="#faaf40"/><path d="M221.58,166.31a3.77,3.77,0,0,1-2.66-6.43l11.59-11.59a3.77,3.77,0,0,1,5.33,5.33L224.24,165.2A3.75,3.75,0,0,1,221.58,166.31Z" transform="translate(-129.42 -130.03)" fill="#faaf40"/></svg>