<svg id="Layer_1" data-name="Layer 1" xmlns="http://www.w3.org/2000/svg" viewBox="0 0 194.71 125.2"><title>wind</title><path d="M749,698.65h0c0-.25,0-0.5,0-0.75a36.25,36.25,0,1,0-72.51,0s0,0,0,.07a29.59,29.59,0,0,0,1.39,59.16H749A29.24,29.24,0,1,0,749,698.65Z" transform="translate(-648.27 -661.65)" fill="#42bfec"/><path d="M825.35,726.68H766.8a5,5,0,0,1,0-10h58.55a7.59,7.59,0,0,0,0-15.19h-7.44a5,5,0,1,1,0-10h7.44A17.64,17.64,0,0,1,825.35,726.68Z" transform="translate(-648.27 -661.65)" fill="#ade0f3"/><path d="M806.27,786.85a22.52,22.52,0,0,1-22.49-22.49,15.37,15.37,0,1,1,30.75,0v2.59a5,5,0,1,1-10,0v-2.59a5.33,5.33,0,1,0-10.66,0,12.44,12.44,0,0,0,24.89,0v-5.14a17,17,0,0,0-17-17H722.81a5,5,0,1,1,0-10H801.7a27.09,27.09,0,0,1,27.06,27.05v5.14A22.52,22.52,0,0,1,806.27,786.85Z" transform="translate(-648.27 -661.65)" fill="#ade0f3"/></svg>